<svg version="1.1" id="Layer_1" xmlns="http://www.w3.org/2000/svg" xmlns:xlink="http://www.w3.org/1999/xlink" x="0px" y="0px"
	 width="100%" viewBox="0 0 1080 1080" enable-background="new 0 0 1080 1080" xml:space="preserve">
<path fill="#DEBB19" opacity="1.000000" stroke="none" 
	d="
M513.000000,1.000000 
	C530.687561,1.000000 548.375122,1.000000 566.785522,1.339380 
	C596.315552,3.227332 624.815979,6.880172 653.062134,12.925643 
	C713.347534,25.828430 769.882446,48.039463 822.461548,80.218941 
	C879.785645,115.302475 928.844299,159.597488 969.715881,212.953308 
	C1005.241028,259.329620 1032.552734,310.136414 1051.524780,365.376495 
	C1066.571167,409.186646 1076.028076,454.178009 1079.275269,500.436127 
	C1079.570557,504.643707 1080.412109,508.812958 1081.000000,513.000000 
	C1081.000000,531.354248 1081.000000,549.708435 1080.652344,568.771606 
	C1079.237183,581.081482 1078.369019,592.704834 1077.067749,604.279480 
	C1071.473267,654.040100 1058.914917,702.077942 1039.613892,748.207947 
	C1006.805481,826.620850 958.180664,893.737732 893.941711,949.515564 
	C849.797974,987.845154 800.549377,1017.903625 746.649841,1040.283447 
	C694.306091,1062.017334 639.681335,1074.560425 583.224915,1079.256958 
	C578.136841,1079.680176 573.074341,1080.411743 568.000000,1081.000000 
	C549.979126,1081.000000 531.958191,1081.000000 513.166138,1080.716064 
	C491.747498,1077.968506 471.000092,1076.141357 450.471466,1072.920166 
	C392.581573,1063.836548 337.959076,1044.758667 286.358521,1017.126465 
	C227.440048,985.575500 176.143311,944.430542 132.435913,893.822754 
	C87.740517,842.070862 54.027172,783.950378 31.445126,719.441895 
	C15.810319,674.779236 5.986922,628.847778 2.724879,581.571228 
	C2.434387,577.361145 1.588136,573.189514 1.000000,569.000000 
	C1.000000,550.312439 1.000000,531.624878 1.347102,512.231323 
	C2.274775,504.223389 2.724517,496.908264 3.457398,489.621582 
	C7.839311,446.054352 16.883169,403.481659 31.540413,362.201965 
	C64.075340,270.572632 117.272179,193.009384 191.171539,129.830200 
	C242.074600,86.311356 299.203827,53.329834 362.547241,31.470209 
	C407.410370,15.988083 453.429871,5.663011 500.941803,2.674676 
	C504.980347,2.420664 508.981476,1.572268 513.000000,1.000000 
M67.713051,730.805908 
	C67.996750,731.588318 68.253082,732.381958 68.568085,733.151550 
	C89.884155,785.233093 119.046265,832.465515 155.801224,875.086060 
	C196.985031,922.842407 245.586441,961.314758 301.121368,990.930298 
	C363.619843,1024.259277 430.261353,1043.673462 500.966522,1049.297729 
	C549.830200,1053.184570 598.176636,1050.096680 646.063354,1039.962402 
	C721.872986,1023.918579 790.468811,992.122864 852.025146,945.051086 
	C903.491760,905.694824 945.629211,857.955505 978.789612,802.468018 
	C1019.500488,734.346191 1042.893677,660.536499 1049.294067,581.342834 
	C1053.970215,523.484314 1048.671875,466.578735 1033.917358,410.507477 
	C1019.033203,353.943115 994.957092,301.572571 961.955688,253.290375 
	C915.189209,184.869247 855.159729,131.103638 782.298950,91.829544 
	C719.790405,58.135635 652.991455,38.611206 582.142090,32.804218 
	C524.115173,28.048191 467.045349,33.239880 410.799316,48.027679 
	C355.066132,62.680626 303.304901,86.164474 255.591354,118.452255 
	C209.114014,149.903488 168.719055,187.836563 134.868851,232.673370 
	C102.521439,275.519623 77.171188,322.121155 59.559811,372.866821 
	C45.135376,414.429596 36.159599,457.125519 32.634571,501.015717 
	C29.524376,539.740784 30.992762,578.259094 36.684898,616.636414 
	C42.471630,655.651611 52.850517,693.447327 67.713051,730.805908 
z"/>
<path fill="#FFFFFF" opacity="1.000000" stroke="none" 
	d="
M568.468628,1081.000000 
	C573.074341,1080.411743 578.136841,1079.680176 583.224915,1079.256958 
	C639.681335,1074.560425 694.306091,1062.017334 746.649841,1040.283447 
	C800.549377,1017.903625 849.797974,987.845154 893.941711,949.515564 
	C958.180664,893.737732 1006.805481,826.620850 1039.613892,748.207947 
	C1058.914917,702.077942 1071.473267,654.040100 1077.067749,604.279480 
	C1078.369019,592.704834 1079.237183,581.081482 1080.652344,569.240234 
	C1081.000000,739.593811 1081.000000,910.187683 1081.000000,1081.000000 
	C910.312500,1081.000000 739.624939,1081.000000 568.468628,1081.000000 
z"/>
<path fill="#FFFFFF" opacity="1.000000" stroke="none" 
	d="
M1081.000000,512.531372 
	C1080.412109,508.812958 1079.570557,504.643707 1079.275269,500.436127 
	C1076.028076,454.178009 1066.571167,409.186646 1051.524780,365.376495 
	C1032.552734,310.136414 1005.241028,259.329620 969.715881,212.953308 
	C928.844299,159.597488 879.785645,115.302475 822.461548,80.218941 
	C769.882446,48.039463 713.347534,25.828430 653.062134,12.925643 
	C624.815979,6.880172 596.315552,3.227332 567.254211,1.339380 
	C738.260315,1.000000 909.520569,1.000000 1081.000000,1.000000 
	C1081.000000,171.354172 1081.000000,341.708435 1081.000000,512.531372 
z"/>
<path fill="#FFFFFF" opacity="1.000000" stroke="none" 
	d="
M1.000000,569.468628 
	C1.588136,573.189514 2.434387,577.361145 2.724879,581.571228 
	C5.986922,628.847778 15.810319,674.779236 31.445126,719.441895 
	C54.027172,783.950378 87.740517,842.070862 132.435913,893.822754 
	C176.143311,944.430542 227.440048,985.575500 286.358521,1017.126465 
	C337.959076,1044.758667 392.581573,1063.836548 450.471466,1072.920166 
	C471.000092,1076.141357 491.747498,1077.968506 512.697510,1080.716064 
	C342.406250,1081.000000 171.812485,1081.000000 1.000000,1081.000000 
	C1.000000,910.645813 1.000000,740.291565 1.000000,569.468628 
z"/>
<path fill="#FFFFFF" opacity="1.000000" stroke="none" 
	d="
M512.531372,1.000000 
	C508.981476,1.572268 504.980347,2.420664 500.941803,2.674676 
	C453.429871,5.663011 407.410370,15.988083 362.547241,31.470209 
	C299.203827,53.329834 242.074600,86.311356 191.171539,129.830200 
	C117.272179,193.009384 64.075340,270.572632 31.540413,362.201965 
	C16.883169,403.481659 7.839311,446.054352 3.457398,489.621582 
	C2.724517,496.908264 2.274775,504.223389 1.347102,511.762695 
	C1.000000,341.739471 1.000000,171.478943 1.000000,1.000000 
	C171.354172,1.000000 341.708435,1.000000 512.531372,1.000000 
z"/>
<path fill="#FEFEFD" opacity="1.000000" stroke="none" 
	d="
M67.547157,730.457214 
	C52.850517,693.447327 42.471630,655.651611 36.684898,616.636414 
	C30.992762,578.259094 29.524376,539.740784 32.634571,501.015717 
	C36.159599,457.125519 45.135376,414.429596 59.559811,372.866821 
	C77.171188,322.121155 102.521439,275.519623 134.868851,232.673370 
	C168.719055,187.836563 209.114014,149.903488 255.591354,118.452255 
	C303.304901,86.164474 355.066132,62.680626 410.799316,48.027679 
	C467.045349,33.239880 524.115173,28.048191 582.142090,32.804218 
	C652.991455,38.611206 719.790405,58.135635 782.298950,91.829544 
	C855.159729,131.103638 915.189209,184.869247 961.955688,253.290375 
	C994.957092,301.572571 1019.033203,353.943115 1033.917358,410.507477 
	C1048.671875,466.578735 1053.970215,523.484314 1049.294067,581.342834 
	C1042.893677,660.536499 1019.500488,734.346191 978.789612,802.468018 
	C945.629211,857.955505 903.491760,905.694824 852.025146,945.051086 
	C790.468811,992.122864 721.872986,1023.918579 646.063354,1039.962402 
	C598.176636,1050.096680 549.830200,1053.184570 500.966522,1049.297729 
	C430.261353,1043.673462 363.619843,1024.259277 301.121368,990.930298 
	C245.586441,961.314758 196.985031,922.842407 155.801224,875.086060 
	C119.046265,832.465515 89.884155,785.233093 68.568085,733.151550 
	C68.253082,732.381958 67.996750,731.588318 67.547157,730.457214 
M710.448120,999.990662 
	C788.031616,971.214417 854.235901,925.745667 908.650574,863.495544 
	C979.728638,782.182434 1019.728516,687.400879 1028.694824,579.812134 
	C1032.700317,531.748901 1029.719604,483.938141 1019.112732,436.762024 
	C992.322021,317.605774 930.055969,221.126587 832.516357,147.866440 
	C756.867737,91.048111 671.287354,59.776039 576.939026,52.783173 
	C518.921753,48.483078 461.753540,53.891331 405.852783,70.102112 
	C314.664215,96.546066 237.197021,145.195786 174.355347,216.394958 
	C106.905273,292.815430 66.807693,381.818054 54.832306,483.170197 
	C47.946926,541.443665 50.819622,599.319580 65.135201,656.301331 
	C96.398872,780.743225 165.664291,878.815369 272.301208,949.915833 
	C344.593445,998.117004 424.723145,1024.046021 511.519470,1029.169922 
	C579.577515,1033.187500 645.669312,1023.763489 710.448120,999.990662 
z"/>
<path fill="#23465A" opacity="1.000000" stroke="none" 
	d="
M710.074341,1000.106384 
	C645.669312,1023.763489 579.577515,1033.187500 511.519470,1029.169922 
	C424.723145,1024.046021 344.593445,998.117004 272.301208,949.915833 
	C165.664291,878.815369 96.398872,780.743225 65.135201,656.301331 
	C50.819622,599.319580 47.946926,541.443665 54.832306,483.170197 
	C66.807693,381.818054 106.905273,292.815430 174.355347,216.394958 
	C237.197021,145.195786 314.664215,96.546066 405.852783,70.102112 
	C461.753540,53.891331 518.921753,48.483078 576.939026,52.783173 
	C671.287354,59.776039 756.867737,91.048111 832.516357,147.866440 
	C930.055969,221.126587 992.322021,317.605774 1019.112732,436.762024 
	C1029.719604,483.938141 1032.700317,531.748901 1028.694824,579.812134 
	C1019.728516,687.400879 979.728638,782.182434 908.650574,863.495544 
	C854.235901,925.745667 788.031616,971.214417 710.074341,1000.106384 
M542.499573,715.512878 
	C586.643005,715.512878 630.786377,715.519287 674.929810,715.500244 
	C678.259094,715.498779 681.593201,715.398865 684.916748,715.203918 
	C710.989563,713.674438 732.781067,691.616394 732.908386,665.517578 
	C733.200317,605.706604 733.152710,545.892639 732.917786,486.081146 
	C732.830078,463.759247 716.409180,443.426422 694.710327,438.047607 
	C689.284729,436.702698 683.547363,436.171265 677.940735,436.085663 
	C661.497131,435.834625 645.047241,435.996246 628.133423,435.996246 
	C628.133423,430.240540 628.170654,424.951935 628.127258,419.664032 
	C627.868958,388.190063 605.617065,366.059387 574.133911,366.003693 
	C552.308105,365.965088 530.482178,365.988037 508.656342,365.998169 
	C475.405334,366.013580 453.387939,388.085327 453.318268,421.461884 
	C453.308350,426.215546 453.316895,430.969299 453.316895,435.996277 
	C436.010071,435.996277 419.372559,435.968384 402.735168,436.002228 
	C371.191772,436.066437 348.705261,457.924622 348.564362,489.491425 
	C348.307800,546.970581 348.507172,604.451660 348.482239,661.931946 
	C348.477203,673.578308 351.194336,684.365356 358.296082,693.773193 
	C369.632751,708.791016 384.656464,715.731567 403.572388,715.608643 
	C449.546356,715.309937 495.523590,715.512329 542.499573,715.512878 
M380.059753,856.155945 
	C380.699158,857.904846 381.843140,859.640137 381.890625,861.404968 
	C382.096466,869.052368 382.031464,876.708923 381.959686,884.361084 
	C381.931061,887.410156 383.044067,888.922424 386.294281,889.069641 
	C389.853577,889.231018 389.886932,887.118225 389.872620,884.596619 
	C389.829163,876.943909 390.074463,869.281799 389.756165,861.642151 
	C389.621490,858.410217 388.360809,855.225098 387.745544,852.590942 
	C388.488037,849.184814 389.636902,846.061096 389.764496,842.896240 
	C390.059204,835.587952 389.879944,828.259583 389.853638,820.939453 
	C389.821899,812.108215 386.429901,808.643433 377.520081,808.313477 
	C375.858582,808.252014 374.174103,808.458679 372.533112,808.264160 
	C368.391388,807.773193 367.096588,809.474121 367.125488,813.614258 
	C367.289032,837.070984 367.195160,860.529480 367.219971,883.987366 
	C367.222504,886.373657 366.519684,889.175964 370.657043,889.070740 
	C374.274017,888.978699 375.137421,887.130920 375.103821,883.968750 
	C375.017181,875.817627 375.200867,867.662292 375.020447,859.514282 
	C374.947754,856.231628 376.297791,855.369751 380.059753,856.155945 
M525.281799,879.421021 
	C525.281799,873.462280 525.281799,867.503540 525.281799,861.634277 
	C531.321655,860.741638 532.053711,861.287781 532.105591,866.558533 
	C532.159668,872.047791 532.079041,877.538391 532.130676,883.027710 
	C532.185547,888.860168 533.462280,889.737366 540.081238,888.104614 
	C538.902893,878.057678 542.347534,867.558838 537.942505,858.282288 
	C538.684814,854.558044 539.597290,851.277710 539.930725,847.939453 
	C540.259766,844.645203 539.822693,841.280884 540.033997,837.967163 
	C541.015991,822.569092 536.155823,820.659424 522.698730,820.897644 
	C518.789062,820.966797 517.550476,822.006165 517.585388,825.954529 
	C517.757141,845.416870 517.654724,864.881653 517.681885,884.345520 
	C517.683899,885.783752 517.944397,887.221619 518.075623,888.566528 
	C524.653198,889.299011 525.179260,888.854614 525.279175,882.885559 
	C525.293091,882.054016 525.281799,881.222046 525.281799,879.421021 
M465.330841,871.453491 
	C465.341644,874.284241 465.210938,877.124023 465.391327,879.943970 
	C465.825958,886.738708 469.911591,890.231323 477.021118,890.067749 
	C483.775208,889.912415 487.725922,886.233826 487.898468,879.671753 
	C488.038452,874.346680 487.885742,869.014526 487.952179,863.686646 
	C487.983856,861.144836 487.898010,859.015808 484.400452,859.112610 
	C481.239166,859.200073 479.907013,860.520996 479.999725,863.706604 
	C480.135284,868.365173 480.040253,873.030884 480.024658,877.693420 
	C480.016266,880.203247 480.285980,883.425659 476.610229,882.810913 
	C475.235107,882.580872 473.356079,879.680542 473.327576,877.970703 
	C473.072144,862.654968 473.070709,847.331360 473.330658,832.015747 
	C473.359436,830.318542 475.258087,827.497498 476.688019,827.215027 
	C479.880707,826.584351 480.072784,829.460510 480.068024,831.923157 
	C480.057678,837.251831 479.797272,842.606140 480.281708,847.891052 
	C480.402710,849.210999 482.792725,850.873108 484.443390,851.370422 
	C486.768585,852.070801 488.020081,850.650574 487.966644,848.016602 
	C487.841705,841.857788 488.034424,835.691589 487.862579,829.534973 
	C487.731079,824.825073 485.076324,821.827148 480.624847,820.457458 
	C472.226746,817.873413 465.447693,822.694031 465.366394,831.500977 
	C465.246460,844.488586 465.332794,857.478088 465.330841,871.453491 
M577.282410,856.500000 
	C577.282043,846.680359 577.311584,836.860596 577.269958,827.041138 
	C577.245056,821.179016 576.503296,820.619751 570.251831,821.541443 
	C570.094604,822.081177 569.757812,822.699707 569.756775,823.318848 
	C569.724854,842.457642 569.608948,861.597595 569.790710,880.734680 
	C569.847473,886.704834 574.388123,890.129272 581.050171,890.056824 
	C587.782532,889.983643 591.928589,886.266357 591.962524,879.773743 
	C592.059998,861.133606 591.997192,842.492615 591.967957,823.851990 
	C591.966736,823.063843 591.670044,822.276184 591.527344,821.569824 
	C585.113098,820.535156 584.139648,821.280884 584.128845,827.333374 
	C584.099731,843.643921 584.176819,859.955017 584.059387,876.264771 
	C584.040344,878.908508 585.547546,883.137390 580.633545,882.955933 
	C575.992249,882.784546 577.416138,878.681396 577.338257,875.972656 
	C577.161377,869.819641 577.282593,863.658081 577.282410,856.500000 
M709.894897,816.962219 
	C711.028503,816.320557 712.317261,815.849915 713.258179,814.996033 
	C714.573547,813.802551 715.629272,812.323059 716.795959,810.965881 
	C715.484680,810.076599 714.215454,808.504089 712.854675,808.420288 
	C707.880310,808.113953 702.868835,808.168030 697.887085,808.410522 
	C696.768372,808.464966 694.707336,810.050781 694.816711,810.553589 
	C695.154541,812.105774 696.041931,813.854553 697.274292,814.796082 
	C698.267578,815.554993 700.071289,815.252991 701.954285,815.472900 
	C701.954285,817.494080 701.954224,819.292908 701.954346,821.091675 
	C701.955078,842.230591 702.082397,863.370789 701.857056,884.507324 
	C701.807983,889.112183 704.203735,889.781067 707.330566,888.742981 
	C708.574585,888.330017 709.709717,885.513855 709.722717,883.782898 
	C709.887756,861.813049 709.839233,839.841492 709.894897,816.962219 
M427.087372,879.185791 
	C427.087372,872.576416 427.087372,865.966980 427.087372,859.255493 
	C429.324188,859.070740 431.239105,859.415344 432.528290,858.673096 
	C433.991028,857.830994 434.893677,856.016052 436.039825,854.624084 
	C434.735474,853.777893 433.527954,852.636719 432.099762,852.167664 
	C430.639679,851.688293 428.963135,851.868286 427.354523,851.757812 
	C427.354523,843.640930 427.354523,836.054199 427.354523,828.149902 
	C429.723816,828.011841 432.064453,828.399780 433.884979,827.601562 
	C435.308594,826.977356 436.087067,824.881836 437.152222,823.440186 
	C435.973236,822.636902 434.854279,821.274841 433.603455,821.140503 
	C430.478760,820.804871 427.268158,821.281677 424.140137,820.961853 
	C419.977173,820.536255 419.104431,822.414795 419.138489,826.163208 
	C419.288055,842.629761 419.202057,859.098511 419.201782,875.566467 
	C419.201538,890.019470 419.201752,890.019348 433.699860,889.015625 
	C433.865509,889.004028 434.074066,889.075134 434.192139,888.998779 
	C435.172363,888.364075 436.982239,887.639648 436.938660,887.063660 
	C436.828247,885.605286 436.234131,883.775940 435.170166,882.916626 
	C434.183105,882.119263 432.274658,882.577881 430.887878,882.126892 
	C429.554199,881.693115 428.369141,880.802368 427.087372,879.185791 
M666.856750,869.498901 
	C666.856384,850.694092 666.855469,831.889343 666.856384,813.084534 
	C666.856506,810.729614 667.201477,808.220276 663.550110,808.304871 
	C660.170654,808.383179 658.934326,810.004395 658.944641,813.334106 
	C659.018616,837.131042 659.006165,860.928467 658.952148,884.725525 
	C658.945984,887.449707 659.403748,889.078491 662.726562,889.097168 
	C666.214966,889.116760 666.956421,887.456787 666.883667,884.475952 
	C666.770020,879.819153 666.855530,875.157532 666.856750,869.498901 
M627.882751,822.075745 
	C628.233704,818.609985 628.925903,815.126831 628.751221,811.687744 
	C628.689697,810.476196 626.647522,808.788696 625.236572,808.447266 
	C624.441650,808.254944 622.290833,810.262146 622.140747,811.453674 
	C621.708435,814.885681 621.810913,818.419312 622.064880,821.886536 
	C622.164124,823.241821 623.227173,824.526489 623.851257,825.843384 
	C625.153076,824.864502 626.454834,823.885620 627.882751,822.075745 
z"/>
<path fill="#FDFDFE" opacity="1.000000" stroke="none" 
	d="
M541.999512,715.512817 
	C495.523590,715.512329 449.546356,715.309937 403.572388,715.608643 
	C384.656464,715.731567 369.632751,708.791016 358.296082,693.773193 
	C351.194336,684.365356 348.477203,673.578308 348.482239,661.931946 
	C348.507172,604.451660 348.307800,546.970581 348.564362,489.491425 
	C348.705261,457.924622 371.191772,436.066437 402.735168,436.002228 
	C419.372559,435.968384 436.010071,435.996277 453.316895,435.996277 
	C453.316895,430.969299 453.308350,426.215546 453.318268,421.461884 
	C453.387939,388.085327 475.405334,366.013580 508.656342,365.998169 
	C530.482178,365.988037 552.308105,365.965088 574.133911,366.003693 
	C605.617065,366.059387 627.868958,388.190063 628.127258,419.664032 
	C628.170654,424.951935 628.133423,430.240540 628.133423,435.996246 
	C645.047241,435.996246 661.497131,435.834625 677.940735,436.085663 
	C683.547363,436.171265 689.284729,436.702698 694.710327,438.047607 
	C716.409180,443.426422 732.830078,463.759247 732.917786,486.081146 
	C733.152710,545.892639 733.200317,605.706604 732.908386,665.517578 
	C732.781067,691.616394 710.989563,713.674438 684.916748,715.203918 
	C681.593201,715.398865 678.259094,715.498779 674.929810,715.500244 
	C630.786377,715.519287 586.643005,715.512878 541.999512,715.512817 
M505.501678,470.838470 
	C499.899078,470.838470 494.296448,470.838470 488.672974,470.838470 
	C488.672974,541.166321 488.672974,610.865784 488.672974,680.512878 
	C523.657227,680.512878 558.240540,680.512878 592.799194,680.512878 
	C592.799194,610.481628 592.799194,540.769714 592.799194,470.838470 
	C563.791931,470.838470 535.146423,470.838470 505.501678,470.838470 
M629.924377,680.804260 
	C646.089172,680.812927 662.254456,680.903687 678.418579,680.803894 
	C690.951172,680.726501 698.058533,673.655945 698.065002,661.353394 
	C698.095093,604.193054 698.096375,547.032715 698.063782,489.872375 
	C698.056946,477.898895 691.104248,470.905396 679.213440,470.855408 
	C663.548767,470.789581 647.883606,470.830933 632.218689,470.854126 
	C630.953735,470.856018 629.688965,471.073395 628.331543,471.199219 
	C628.248230,472.177032 628.145508,472.820526 628.145386,473.464020 
	C628.136475,541.289856 628.130676,609.115662 628.170166,676.941467 
	C628.170837,678.174011 628.717468,679.406372 629.924377,680.804260 
M383.425415,555.499634 
	C383.425659,590.306335 383.408569,625.113037 383.434631,659.919739 
	C383.445129,673.919556 390.305603,680.798157 404.228058,680.826294 
	C419.049957,680.856262 433.872009,680.839722 448.693970,680.822083 
	C450.133057,680.820312 451.571991,680.667480 452.956238,680.587952 
	C452.956238,610.467773 452.956238,540.791199 452.956238,470.837097 
	C436.458618,470.837097 420.301971,471.367462 404.198730,470.667755 
	C391.522339,470.117004 382.993317,478.688812 383.293701,491.550903 
	C383.783478,512.523376 383.425629,533.515686 383.425415,555.499634 
M579.623535,401.332703 
	C554.488647,401.245392 529.353271,401.045105 504.219208,401.148193 
	C497.730042,401.174835 490.428528,406.548309 489.431458,412.662415 
	C488.195831,420.239563 488.360840,428.045105 487.920502,435.756927 
	C523.596436,435.756927 558.173401,435.756927 593.157837,435.756927 
	C593.157837,430.237793 593.206177,424.950348 593.147217,419.664093 
	C593.041199,410.156616 589.381470,405.026886 579.623535,401.332703 
z"/>
<path fill="#C9A535" opacity="1.000000" stroke="none" 
	d="
M379.628784,856.045288 
	C376.297791,855.369751 374.947754,856.231628 375.020447,859.514282 
	C375.200867,867.662292 375.017181,875.817627 375.103821,883.968750 
	C375.137421,887.130920 374.274017,888.978699 370.657043,889.070740 
	C366.519684,889.175964 367.222504,886.373657 367.219971,883.987366 
	C367.195160,860.529480 367.289032,837.070984 367.125488,813.614258 
	C367.096588,809.474121 368.391388,807.773193 372.533112,808.264160 
	C374.174103,808.458679 375.858582,808.252014 377.520081,808.313477 
	C386.429901,808.643433 389.821899,812.108215 389.853638,820.939453 
	C389.879944,828.259583 390.059204,835.587952 389.764496,842.896240 
	C389.636902,846.061096 388.488037,849.184814 387.745544,852.590942 
	C388.360809,855.225098 389.621490,858.410217 389.756165,861.642151 
	C390.074463,869.281799 389.829163,876.943909 389.872620,884.596619 
	C389.886932,887.118225 389.853577,889.231018 386.294281,889.069641 
	C383.044067,888.922424 381.931061,887.410156 381.959686,884.361084 
	C382.031464,876.708923 382.096466,869.052368 381.890625,861.404968 
	C381.843140,859.640137 380.699158,857.904846 379.628784,856.045288 
M375.074310,817.955444 
	C375.074310,828.196350 375.074310,838.437256 375.074310,848.568970 
	C378.943054,849.375488 381.753967,848.850281 381.853149,845.020142 
	C382.080933,836.221863 382.044525,827.410706 381.799072,818.613586 
	C381.766693,817.452820 380.059509,815.775574 378.805939,815.393127 
	C377.833038,815.096313 376.357849,816.445679 375.074310,817.955444 
z"/>
<path fill="#CDA734" opacity="1.000000" stroke="none" 
	d="
M525.281982,879.905640 
	C525.281799,881.222046 525.293091,882.054016 525.279175,882.885559 
	C525.179260,888.854614 524.653198,889.299011 518.075623,888.566528 
	C517.944397,887.221619 517.683899,885.783752 517.681885,884.345520 
	C517.654724,864.881653 517.757141,845.416870 517.585388,825.954529 
	C517.550476,822.006165 518.789062,820.966797 522.698730,820.897644 
	C536.155823,820.659424 541.015991,822.569092 540.033997,837.967163 
	C539.822693,841.280884 540.259766,844.645203 539.930725,847.939453 
	C539.597290,851.277710 538.684814,854.558044 537.942505,858.282288 
	C542.347534,867.558838 538.902893,878.057678 540.081238,888.104614 
	C533.462280,889.737366 532.185547,888.860168 532.130676,883.027710 
	C532.079041,877.538391 532.159668,872.047791 532.105591,866.558533 
	C532.053711,861.287781 531.321655,860.741638 525.281799,861.634277 
	C525.281799,867.503540 525.281799,873.462280 525.281982,879.905640 
M532.151672,842.470215 
	C532.150574,839.313354 532.202820,836.155457 532.136230,832.999939 
	C532.028687,827.905457 530.981873,827.221191 525.248474,828.756165 
	C525.248474,836.082825 525.139526,843.537598 525.367310,850.981934 
	C525.401001,852.081970 527.219238,854.130981 527.877380,854.004272 
	C529.351746,853.720398 531.472656,852.566650 531.786621,851.364136 
	C532.439453,848.863586 532.089478,846.101196 532.151672,842.470215 
z"/>
<path fill="#C8A535" opacity="1.000000" stroke="none" 
	d="
M465.331055,870.960144 
	C465.332794,857.478088 465.246460,844.488586 465.366394,831.500977 
	C465.447693,822.694031 472.226746,817.873413 480.624847,820.457458 
	C485.076324,821.827148 487.731079,824.825073 487.862579,829.534973 
	C488.034424,835.691589 487.841705,841.857788 487.966644,848.016602 
	C488.020081,850.650574 486.768585,852.070801 484.443390,851.370422 
	C482.792725,850.873108 480.402710,849.210999 480.281708,847.891052 
	C479.797272,842.606140 480.057678,837.251831 480.068024,831.923157 
	C480.072784,829.460510 479.880707,826.584351 476.688019,827.215027 
	C475.258087,827.497498 473.359436,830.318542 473.330658,832.015747 
	C473.070709,847.331360 473.072144,862.654968 473.327576,877.970703 
	C473.356079,879.680542 475.235107,882.580872 476.610229,882.810913 
	C480.285980,883.425659 480.016266,880.203247 480.024658,877.693420 
	C480.040253,873.030884 480.135284,868.365173 479.999725,863.706604 
	C479.907013,860.520996 481.239166,859.200073 484.400452,859.112610 
	C487.898010,859.015808 487.983856,861.144836 487.952179,863.686646 
	C487.885742,869.014526 488.038452,874.346680 487.898468,879.671753 
	C487.725922,886.233826 483.775208,889.912415 477.021118,890.067749 
	C469.911591,890.231323 465.825958,886.738708 465.391327,879.943970 
	C465.210938,877.124023 465.341644,874.284241 465.331055,870.960144 
z"/>
<path fill="#CDA734" opacity="1.000000" stroke="none" 
	d="
M577.282532,857.000000 
	C577.282593,863.658081 577.161377,869.819641 577.338257,875.972656 
	C577.416138,878.681396 575.992249,882.784546 580.633545,882.955933 
	C585.547546,883.137390 584.040344,878.908508 584.059387,876.264771 
	C584.176819,859.955017 584.099731,843.643921 584.128845,827.333374 
	C584.139648,821.280884 585.113098,820.535156 591.527344,821.569824 
	C591.670044,822.276184 591.966736,823.063843 591.967957,823.851990 
	C591.997192,842.492615 592.059998,861.133606 591.962524,879.773743 
	C591.928589,886.266357 587.782532,889.983643 581.050171,890.056824 
	C574.388123,890.129272 569.847473,886.704834 569.790710,880.734680 
	C569.608948,861.597595 569.724854,842.457642 569.756775,823.318848 
	C569.757812,822.699707 570.094604,822.081177 570.251831,821.541443 
	C576.503296,820.619751 577.245056,821.179016 577.269958,827.041138 
	C577.311584,836.860596 577.282043,846.680359 577.282532,857.000000 
z"/>
<path fill="#C8A535" opacity="1.000000" stroke="none" 
	d="
M709.869995,817.416321 
	C709.839233,839.841492 709.887756,861.813049 709.722717,883.782898 
	C709.709717,885.513855 708.574585,888.330017 707.330566,888.742981 
	C704.203735,889.781067 701.807983,889.112183 701.857056,884.507324 
	C702.082397,863.370789 701.955078,842.230591 701.954346,821.091675 
	C701.954224,819.292908 701.954285,817.494080 701.954285,815.472900 
	C700.071289,815.252991 698.267578,815.554993 697.274292,814.796082 
	C696.041931,813.854553 695.154541,812.105774 694.816711,810.553589 
	C694.707336,810.050781 696.768372,808.464966 697.887085,808.410522 
	C702.868835,808.168030 707.880310,808.113953 712.854675,808.420288 
	C714.215454,808.504089 715.484680,810.076599 716.796021,810.965942 
	C715.629272,812.323059 714.573547,813.802551 713.258179,814.996033 
	C712.317261,815.849915 711.028503,816.320557 709.869995,817.416321 
z"/>
<path fill="#C8A535" opacity="1.000000" stroke="none" 
	d="
M427.103088,879.649048 
	C428.369141,880.802368 429.554199,881.693115 430.887878,882.126892 
	C432.274658,882.577881 434.183105,882.119263 435.170166,882.916626 
	C436.234131,883.775940 436.828247,885.605286 436.938660,887.063660 
	C436.982239,887.639648 435.172363,888.364075 434.192139,888.998779 
	C434.074066,889.075134 433.865509,889.004028 433.699860,889.015625 
	C419.201752,890.019348 419.201538,890.019470 419.201782,875.566467 
	C419.202057,859.098511 419.288055,842.629761 419.138489,826.163208 
	C419.104431,822.414795 419.977173,820.536255 424.140137,820.961853 
	C427.268158,821.281677 430.478760,820.804871 433.603455,821.140503 
	C434.854279,821.274841 435.973236,822.636902 437.152222,823.440186 
	C436.087067,824.881836 435.308594,826.977356 433.884979,827.601562 
	C432.064453,828.399780 429.723816,828.011841 427.354523,828.149902 
	C427.354523,836.054199 427.354523,843.640930 427.354523,851.757812 
	C428.963135,851.868286 430.639679,851.688293 432.099762,852.167664 
	C433.527954,852.636719 434.735474,853.777893 436.039795,854.624084 
	C434.893677,856.016052 433.991028,857.830994 432.528290,858.673096 
	C431.239105,859.415344 429.324188,859.070740 427.087372,859.255493 
	C427.087372,865.966980 427.087372,872.576416 427.103088,879.649048 
z"/>
<path fill="#CAA534" opacity="1.000000" stroke="none" 
	d="
M666.856689,869.998413 
	C666.855530,875.157532 666.770020,879.819153 666.883667,884.475952 
	C666.956421,887.456787 666.214966,889.116760 662.726562,889.097168 
	C659.403748,889.078491 658.945984,887.449707 658.952148,884.725525 
	C659.006165,860.928467 659.018616,837.131042 658.944641,813.334106 
	C658.934326,810.004395 660.170654,808.383179 663.550110,808.304871 
	C667.201477,808.220276 666.856506,810.729614 666.856384,813.084534 
	C666.855469,831.889343 666.856384,850.694092 666.856689,869.998413 
z"/>
<path fill="#C8A535" opacity="1.000000" stroke="none" 
	d="
M627.819702,822.491211 
	C626.454834,823.885620 625.153076,824.864502 623.851257,825.843384 
	C623.227173,824.526489 622.164124,823.241821 622.064880,821.886536 
	C621.810913,818.419312 621.708435,814.885681 622.140747,811.453674 
	C622.290833,810.262146 624.441650,808.254944 625.236572,808.447266 
	C626.647522,808.788696 628.689697,810.476196 628.751221,811.687744 
	C628.925903,815.126831 628.233704,818.609985 627.819702,822.491211 
z"/>
<path fill="#24475B" opacity="1.000000" stroke="none" 
	d="
M506.001282,470.838470 
	C535.146423,470.838470 563.791931,470.838470 592.799194,470.838470 
	C592.799194,540.769714 592.799194,610.481628 592.799194,680.512878 
	C558.240540,680.512878 523.657227,680.512878 488.672974,680.512878 
	C488.672974,610.865784 488.672974,541.166321 488.672974,470.838470 
	C494.296448,470.838470 499.899078,470.838470 506.001282,470.838470 
z"/>
<path fill="#24475B" opacity="1.000000" stroke="none" 
	d="
M629.466858,680.721558 
	C628.717468,679.406372 628.170837,678.174011 628.170166,676.941467 
	C628.130676,609.115662 628.136475,541.289856 628.145386,473.464020 
	C628.145508,472.820526 628.248230,472.177032 628.331543,471.199219 
	C629.688965,471.073395 630.953735,470.856018 632.218689,470.854126 
	C647.883606,470.830933 663.548767,470.789581 679.213440,470.855408 
	C691.104248,470.905396 698.056946,477.898895 698.063782,489.872375 
	C698.096375,547.032715 698.095093,604.193054 698.065002,661.353394 
	C698.058533,673.655945 690.951172,680.726501 678.418579,680.803894 
	C662.254456,680.903687 646.089172,680.812927 629.466858,680.721558 
z"/>
<path fill="#24475B" opacity="1.000000" stroke="none" 
	d="
M383.425415,554.999634 
	C383.425629,533.515686 383.783478,512.523376 383.293701,491.550903 
	C382.993317,478.688812 391.522339,470.117004 404.198730,470.667755 
	C420.301971,471.367462 436.458618,470.837097 452.956238,470.837097 
	C452.956238,540.791199 452.956238,610.467773 452.956238,680.587952 
	C451.571991,680.667480 450.133057,680.820312 448.693970,680.822083 
	C433.872009,680.839722 419.049957,680.856262 404.228058,680.826294 
	C390.305603,680.798157 383.445129,673.919556 383.434631,659.919739 
	C383.408569,625.113037 383.425659,590.306335 383.425415,554.999634 
z"/>
<path fill="#24475B" opacity="1.000000" stroke="none" 
	d="
M580.010864,401.489471 
	C589.381470,405.026886 593.041199,410.156616 593.147217,419.664093 
	C593.206177,424.950348 593.157837,430.237793 593.157837,435.756927 
	C558.173401,435.756927 523.596436,435.756927 487.920502,435.756927 
	C488.360840,428.045105 488.195831,420.239563 489.431458,412.662415 
	C490.428528,406.548309 497.730042,401.174835 504.219208,401.148193 
	C529.353271,401.045105 554.488647,401.245392 580.010864,401.489471 
z"/>
<path fill="#274859" opacity="1.000000" stroke="none" 
	d="
M375.090118,817.509399 
	C376.357849,816.445679 377.833038,815.096313 378.805939,815.393127 
	C380.059509,815.775574 381.766693,817.452820 381.799072,818.613586 
	C382.044525,827.410706 382.080933,836.221863 381.853149,845.020142 
	C381.753967,848.850281 378.943054,849.375488 375.074310,848.568970 
	C375.074310,838.437256 375.074310,828.196350 375.090118,817.509399 
z"/>
<path fill="#2D4C58" opacity="1.000000" stroke="none" 
	d="
M532.151733,842.958313 
	C532.089478,846.101196 532.439453,848.863586 531.786621,851.364136 
	C531.472656,852.566650 529.351746,853.720398 527.877380,854.004272 
	C527.219238,854.130981 525.401001,852.081970 525.367310,850.981934 
	C525.139526,843.537598 525.248474,836.082825 525.248474,828.756165 
	C530.981873,827.221191 532.028687,827.905457 532.136230,832.999939 
	C532.202820,836.155457 532.150574,839.313354 532.151733,842.958313 
z"/>
</svg>